<svg xmlns="http://www.w3.org/2000/svg" viewBox="0 0 106.15 44.41"><defs><style>.cls-1{fill:#5c2d31;}.cls-2{fill:#721211;}</style></defs><title>Asset 3</title><g id="Layer_2" data-name="Layer 2"><g id="Layer_1-2" data-name="Layer 1"><path class="cls-1" d="M23,5.83a4.26,4.26,0,0,0-.42.26L16,11.47a2.88,2.88,0,0,1-2.64.74,4.09,4.09,0,0,1-1.59-1L5.58,6.18c-.13-.11-.28-.2-.5-.36v.65c0,3.61,0,7.21,0,10.81A1.67,1.67,0,0,1,3.43,19c-.57-.05-1.15,0-1.73,0A1.48,1.48,0,0,1,.23,17.56V2.14A1.91,1.91,0,0,1,2.29,0,3.43,3.43,0,0,1,4.8.83C7.2,2.78,9.63,4.7,12,6.63c.56.45,1.13.89,1.68,1.35a.39.39,0,0,0,.6,0q4.56-3.72,9.13-7.4A3.48,3.48,0,0,1,27.1.52a1.54,1.54,0,0,1,.66,1.3c0,2.66,0,5.32,0,8s0,5,0,7.48A1.65,1.65,0,0,1,26.08,19a14,14,0,0,0-1.59,0A1.48,1.48,0,0,1,23,17.42c0-3.69,0-7.37,0-11.06Z"/><path class="cls-1" d="M43.27,18.94H34.55a1.46,1.46,0,0,1-1.41-1.39V1.68A1.63,1.63,0,0,1,34.58.16,5.55,5.55,0,0,1,35.73,0c5,0,10,0,15,0A5.81,5.81,0,0,1,52.38.3a1.55,1.55,0,0,1,1,1,.89.89,0,0,1-.34,1A2.64,2.64,0,0,1,51.36,3H38.53C38,3,38,3,38,3.56c0,1.34,0,2.69,0,4,0,.34.13.42.44.42,3.14,0,6.28,0,9.42,0a6,6,0,0,1,1.64.22,1.9,1.9,0,0,1,.89.65,1.18,1.18,0,0,1-.53,1.74,3.71,3.71,0,0,1-1.84.42c-2,0-4,0-6,0H38.4c-.32,0-.45.09-.45.44,0,1.41,0,2.81,0,4.22,0,.49,0,.49.48.49H50.92a3.26,3.26,0,0,1,2,.53,1,1,0,0,1,.1,1.82A1.54,1.54,0,0,1,52,19C49.05,18.93,46.16,18.94,43.27,18.94Z"/><path class="cls-1" d="M69.37,32.69c0-3,0-6.11,0-9.17A1.88,1.88,0,0,1,71,21.79c2.34,0,4.68-.06,7,0a9.86,9.86,0,0,1,4,1.11,11.17,11.17,0,0,1,6.13,8.34,10.68,10.68,0,0,1-2.87,8.92,11.11,11.11,0,0,1-3.74,2.62,10.43,10.43,0,0,1-3.93.89c-2.18,0-4.37,0-6.55,0a1.91,1.91,0,0,1-1.77-1.76C69.39,38.86,69.37,35.78,69.37,32.69Zm3.77.08h0v7c0,.24,0,.46.33.45a39.45,39.45,0,0,0,5-.13,6.72,6.72,0,0,0,3.86-1.88,7.48,7.48,0,0,0,2.12-4.15,7.55,7.55,0,0,0-.52-4.46,7,7,0,0,0-6.51-4.42c-1.27-.06-2.55,0-3.83,0-.34,0-.44.13-.44.46C73.15,28,73.14,30.41,73.14,32.77Z"/><path class="cls-1" d="M101.74,19a1.63,1.63,0,0,1-1.6-.92c-.41-.74-.86-1.46-1.26-2.21a.62.62,0,0,0-.64-.36H86.05a.46.46,0,0,0-.48.26c-.43.78-.89,1.55-1.34,2.32a1.65,1.65,0,0,1-1.55.91H81a1.26,1.26,0,0,1-1.2-.67,1.22,1.22,0,0,1,0-1.4c1.45-2.32,2.9-4.63,4.34-6.95l5.31-8.5A3.06,3.06,0,0,1,92.2,0a2.83,2.83,0,0,1,2.7,1.49c.22.41.5.8.75,1.2l5.26,8.34,3.67,5.83a1.13,1.13,0,0,1,0,1.29,1.34,1.34,0,0,1-1.22.76ZM92.27,4.64l-.14,0-4.58,7.79h9.28C95.28,9.78,93.78,7.21,92.27,4.64Z"/><path class="cls-1" d="M98.36,44.12a8.34,8.34,0,0,1-6-2.33A3.78,3.78,0,0,1,91,39.53a1.64,1.64,0,0,1,1.24-1.77,1.92,1.92,0,0,1,2.15.89,4.45,4.45,0,0,0,2.71,1.72,7,7,0,0,0,2.13.18,3.3,3.3,0,0,0,2.43-1c.84-1,1.21-3.07-.47-4a28.11,28.11,0,0,0-2.59-1.26,24.5,24.5,0,0,1-4.1-2,5.59,5.59,0,0,1-2.6-3.59,6.24,6.24,0,0,1,.45-4,5.41,5.41,0,0,1,3.22-2.79,8.55,8.55,0,0,1,3.86-.42,8.8,8.8,0,0,1,2.94.8A6.22,6.22,0,0,1,105,24.5a1.53,1.53,0,0,1-.08,1.78,1.76,1.76,0,0,1-1.84.69,3.82,3.82,0,0,1-1.43-1A4.35,4.35,0,0,0,99.46,25a8.51,8.51,0,0,0-2.14,0,2,2,0,0,0-1.56,1,2.48,2.48,0,0,0,.62,3.2,10,10,0,0,0,2.82,1.42,20.31,20.31,0,0,1,4.25,2.05,6,6,0,0,1,2.27,2.6,5.6,5.6,0,0,1,.28,3.45,6.5,6.5,0,0,1-4.56,4.9A8.29,8.29,0,0,1,98.36,44.12Z"/><path class="cls-1" d="M0,32.73v-9a1.68,1.68,0,0,1,.64-1.53,2.13,2.13,0,0,1,1.08-.42c3.91,0,7.82,0,11.73,0a1.71,1.71,0,0,1,1.4.78.7.7,0,0,1,.11.36c0,.26,0,.52,0,.78a1.36,1.36,0,0,1-1.52,1.49H5.32c-.4,0-.8,0-1.2,0s-.37.12-.37.39q0,2.94,0,5.88c0,.35.16.41.46.41h7a1.57,1.57,0,0,1,1.4.88,1.53,1.53,0,0,1,0,1.61,1.63,1.63,0,0,1-1.52.9c-2.31,0-4.63,0-6.94,0-.32,0-.37.15-.37.42,0,2,0,4.06,0,6.09A1.86,1.86,0,0,1,2,43.67a1.88,1.88,0,0,1-2-1.94C0,38.73,0,35.73,0,32.73Z"/><path class="cls-1" d="M71.82,3.06v14.1a1.63,1.63,0,0,1-1.11,1.7,1.15,1.15,0,0,1-.41.08H68.67a1.57,1.57,0,0,1-1.73-1.75V3.76c0-.7,0-.7-.72-.7-1.89,0-3.78,0-5.67,0a3.29,3.29,0,0,1-1.89-.42A2,2,0,0,1,58,2.05C57.7,1.53,58,.93,58.57.51A3.25,3.25,0,0,1,60.46,0c6,0,11.91,0,17.86,0a3.18,3.18,0,0,1,1.91.52,1.13,1.13,0,0,1,0,2,3.23,3.23,0,0,1-1.7.49c-2.08,0-4.15,0-6.23,0Z"/><path class="cls-2" d="M66.24,29.36c-.06-.19-.13-.38-.2-.56l-.15-.39a11.22,11.22,0,0,0-.55-1.16h0a9.05,9.05,0,0,0-1.83-2.53,12.84,12.84,0,0,0-1.84-1.54h0a10.09,10.09,0,0,0-1.77-1,11.4,11.4,0,0,0-2-.69,11.68,11.68,0,0,0-4.38-.22A11.38,11.38,0,0,0,52,21.6c-.31.08-.61.18-.91.29l-.22.08a16.48,16.48,0,0,0-2,1,20.32,20.32,0,0,0-3.58,2.6c-.58.52-1.1,1.11-1.64,1.69a17.69,17.69,0,0,0-1.46,1.66l-.66.95q-.28.36-.54.75c-.45.67-.88,1.35-1.32,2l-.09.15a27.47,27.47,0,0,1-3.34,4.18,14.73,14.73,0,0,1-2.9,2.44,25.44,25.44,0,0,1-2.48,1.41,9.07,9.07,0,0,1-4,.74,8.24,8.24,0,0,1-1.41-.18,8.62,8.62,0,0,1-1-.27l-.08,0a9.18,9.18,0,0,1-2.85-1.66,7.13,7.13,0,0,1-.58-.53c-.16-.16-.3-.32-.44-.48l-.13-.15a1.47,1.47,0,0,0-.1-.13l-.12-.16L20,37.81l0-.08a8.82,8.82,0,0,1-1-2,10,10,0,0,1-.49-1.92,9.61,9.61,0,0,1-.07-1.07V32.6a9,9,0,0,1,.57-2.89,9.16,9.16,0,0,1,1.54-2.66,8.57,8.57,0,0,1,1.58-1.42,9.18,9.18,0,0,1,1.85-1c.29-.12.59-.24.9-.35A8.25,8.25,0,0,1,27,24a9.27,9.27,0,0,1,2.77.29l.26.08c.36.14.7.29,1,.45a8.48,8.48,0,0,1,1.53.94,12.64,12.64,0,0,1,.94.85c1,1,1.9,2,2.83,3a1.57,1.57,0,0,0,1.92.43,1.48,1.48,0,0,0,.27-2.22l0,0h0c-.24-.28-.46-.57-.72-.83-.66-.66-1.3-1.34-2-2-.38-.4-.78-.79-1.19-1.15A9.43,9.43,0,0,0,31,21.74c-.35-.1-.7-.2-1.06-.28a11.07,11.07,0,0,0-10.66,2.8l-.34.32h0a12.34,12.34,0,0,0-1,1.08,10.75,10.75,0,0,0-1.15,1.8,11.25,11.25,0,0,0-1,2.78,12,12,0,0,0-.25,2.47,11.26,11.26,0,0,0,.49,3.41c.06.19.13.38.2.56l.15.39A11.22,11.22,0,0,0,17,38.24h0a8.86,8.86,0,0,0,1.83,2.53,12.84,12.84,0,0,0,1.84,1.54h0a10.09,10.09,0,0,0,1.77,1,11.4,11.4,0,0,0,2,.69,11.68,11.68,0,0,0,4.38.22,11.38,11.38,0,0,0,1.52-.31c.31-.08.61-.18.91-.29l.22-.08a16.48,16.48,0,0,0,2.05-1A20.32,20.32,0,0,0,37.12,40c.58-.52,1.1-1.11,1.64-1.69a17.69,17.69,0,0,0,1.46-1.66l.66-.95q.28-.36.54-.75c.45-.67.88-1.35,1.32-2l.09-.15a26.33,26.33,0,0,1,3.34-4.17,14.44,14.44,0,0,1,2.9-2.45,25.44,25.44,0,0,1,2.48-1.41,9,9,0,0,1,4-.74,8.23,8.23,0,0,1,1.42.18,8.62,8.62,0,0,1,1,.27l.08,0a9.38,9.38,0,0,1,2.85,1.66c.2.17.39.34.58.53l.44.48.13.15a1.47,1.47,0,0,0,.1.13l.12.16a.83.83,0,0,1,.08.12l.06.08a8.82,8.82,0,0,1,1,2,10,10,0,0,1,.49,1.92A9.77,9.77,0,0,1,64,32.71v.18a9,9,0,0,1-.57,2.89,9.16,9.16,0,0,1-1.54,2.66,8.57,8.57,0,0,1-1.58,1.42,9.22,9.22,0,0,1-1.85,1,10.48,10.48,0,0,1-2.19.61,12.93,12.93,0,0,1-2,0,7.15,7.15,0,0,1-3-.77,8.48,8.48,0,0,1-1.53-.94,10.76,10.76,0,0,1-.94-.85c-1-1-1.9-2-2.83-3a1.57,1.57,0,0,0-1.92-.43,1.48,1.48,0,0,0-.27,2.22l0,0h0c.24.28.46.57.72.83.66.66,1.3,1.34,2,2a16.15,16.15,0,0,0,1.19,1.15,9.43,9.43,0,0,0,3.6,2c.35.11.7.2,1.06.28A11,11,0,0,0,63,41.23l.34-.32h0a12.34,12.34,0,0,0,1-1.08A11.42,11.42,0,0,0,65.48,38a11.25,11.25,0,0,0,1-2.78,12,12,0,0,0,.25-2.47A11.3,11.3,0,0,0,66.24,29.36Z"/></g></g></svg>