<svg xmlns="http://www.w3.org/2000/svg" viewBox="0 0 141.69 64.59"><defs><style>.cls-1{fill:#721211;}</style></defs><title>Asset 2</title><g id="Layer_2" data-name="Layer 2"><g id="Layer_1-2" data-name="Layer 1"><path class="cls-1" d="M140.32,22.93c-.16-.53-.35-1.05-.56-1.57-.13-.35-.26-.71-.4-1.07a26.3,26.3,0,0,0-1.54-3.21v0a24.51,24.51,0,0,0-5.08-7,33.81,33.81,0,0,0-5.08-4.27h0a27.66,27.66,0,0,0-4.91-2.67,31,31,0,0,0-5.64-1.93A32.53,32.53,0,0,0,105,.57a29.76,29.76,0,0,0-4.22.85c-.85.23-1.69.51-2.51.8l-.61.23A44.1,44.1,0,0,0,92,5.09,54.63,54.63,0,0,0,82,12.29C80.41,13.73,79,15.37,77.48,17a47.6,47.6,0,0,0-4,4.61q-.93,1.3-1.83,2.61c-.53.69-1,1.38-1.51,2.1-1.24,1.85-2.43,3.74-3.63,5.62l-.27.4A73.25,73.25,0,0,1,57,43.87a40.72,40.72,0,0,1-8,6.78,74.08,74.08,0,0,1-6.86,3.9A24.84,24.84,0,0,1,30.9,56.6,21,21,0,0,1,27,56.11a25.81,25.81,0,0,1-2.66-.76l-.23-.08a26.15,26.15,0,0,1-7.89-4.58c-.55-.47-1.09-1-1.6-1.48s-.85-.88-1.24-1.34L13,47.45l-.29-.36-.33-.44-.23-.32L12,46.12a24.41,24.41,0,0,1-2.76-5.44A27.2,27.2,0,0,1,7.9,35.36a24.64,24.64,0,0,1-.19-3c0-.17,0-.34,0-.51a24.61,24.61,0,0,1,1.56-8,25.73,25.73,0,0,1,4.27-7.36,23.67,23.67,0,0,1,4.39-3.94,25.31,25.31,0,0,1,5.12-2.77c.8-.31,1.64-.65,2.48-1a23.61,23.61,0,0,1,6-.93,26.76,26.76,0,0,1,7.66.82l.74.21c1,.38,1.94.82,2.87,1.26A22.8,22.8,0,0,1,47,12.82a31.93,31.93,0,0,1,2.61,2.33c2.72,2.7,5.26,5.59,7.83,8.44a4.38,4.38,0,0,0,5.33,1.18,4.07,4.07,0,0,0,.74-6.13l-.1-.1v0c-.65-.78-1.28-1.58-2-2.29-1.83-1.85-3.62-3.73-5.47-5.56-1.06-1.1-2.14-2.18-3.29-3.19a26.3,26.3,0,0,0-10-5.67c-1-.29-1.94-.55-2.92-.76C32.12-.89,20.85-1.07,10.26,8.79c-.32.29-.63.59-.94.9l0,0h0a33,33,0,0,0-2.65,3,29.62,29.62,0,0,0-3.17,5A29.8,29.8,0,0,0,.71,25.39,32.52,32.52,0,0,0,0,32.22a31.12,31.12,0,0,0,1.36,9.44c.17.53.36,1.05.57,1.57.12.36.26.72.4,1.07a26.44,26.44,0,0,0,1.54,3.22v0a24.55,24.55,0,0,0,5.08,7A34.35,34.35,0,0,0,14,58.81h0A27.66,27.66,0,0,0,19,61.49a30,30,0,0,0,5.64,1.93,32.06,32.06,0,0,0,12.12.6A31,31,0,0,0,41,63.18c.85-.24,1.68-.51,2.51-.81l.6-.22a43.67,43.67,0,0,0,5.68-2.65,55,55,0,0,0,9.92-7.2,64.44,64.44,0,0,0,4.54-4.66,46.5,46.5,0,0,0,4-4.62q.93-1.29,1.83-2.61c.52-.68,1-1.38,1.51-2.09,1.24-1.86,2.43-3.75,3.63-5.62l.27-.41a73.65,73.65,0,0,1,9.24-11.57,40.78,40.78,0,0,1,8-6.78,72.7,72.7,0,0,1,6.86-3.89A24.68,24.68,0,0,1,110.79,8a21.89,21.89,0,0,1,3.91.48c.89.21,1.78.46,2.66.76l.22.08a25.9,25.9,0,0,1,7.9,4.59c.55.47,1.08,1,1.6,1.48a17.41,17.41,0,0,1,1.24,1.34l.34.41.29.36.33.45c.08.1.15.21.23.32s.1.14.14.21a23.61,23.61,0,0,1,2.77,5.44,26.22,26.22,0,0,1,1.36,5.31,23,23,0,0,1,.2,3c0,.18,0,.35,0,.52a24.55,24.55,0,0,1-1.56,8,25.65,25.65,0,0,1-4.27,7.37A23.94,23.94,0,0,1,123.75,52a24.83,24.83,0,0,1-5.12,2.77,28.39,28.39,0,0,1-6.06,1.68,35.37,35.37,0,0,1-5.45,0,19.77,19.77,0,0,1-8.23-2.12,22.51,22.51,0,0,1-4.23-2.62,30.17,30.17,0,0,1-2.61-2.33c-2.73-2.7-5.27-5.58-7.83-8.43a4.35,4.35,0,0,0-5.33-1.18A4.06,4.06,0,0,0,78.15,46l.09.11,0,0c.65.77,1.27,1.57,2,2.29,1.83,1.84,3.62,3.72,5.46,5.55,1.07,1.1,2.15,2.18,3.3,3.19a26.16,26.16,0,0,0,10,5.67c1,.29,1.94.56,2.92.76,7.67,1.94,18.94,2.13,29.53-7.73l.94-.9,0,0h0a31.6,31.6,0,0,0,2.65-3,30.45,30.45,0,0,0,3.17-5A30,30,0,0,0,141,39.2a32.43,32.43,0,0,0,.71-6.82A30.89,30.89,0,0,0,140.32,22.93Z"/></g></g></svg>