<svg version="1.1" xmlns="http://www.w3.org/2000/svg" xmlns:xlink="http://www.w3.org/1999/xlink" x="0px" y="0px" viewBox="0 0 256 256" enable-background="new 0 0 256 256" xml:space="preserve">
<g><g><path d="M134.8,117.3c-6.1,0-11-4.8-11-11s4.8-11,11-11c6.1,0,11,4.8,11,11C145.7,112.5,141,117.3,134.8,117.3z M134.8,100c-3.5,0-6.4,2.9-6.4,6.4s2.9,6.4,6.4,6.4c3.5,0,6.4-2.9,6.4-6.4S138.3,100,134.8,100z M108.4,117.3c-6.1,0-11-4.8-11-11s4.8-11,11-11c6.1,0,11,4.8,11,11S114.5,117.3,108.4,117.3z M108.4,100c-3.5,0-6.4,2.9-6.4,6.4s2.9,6.4,6.4,6.4c3.5,0,6.4-2.9,6.4-6.4S112.1,100,108.4,100z M121.2,95.4c-6.1,0-11-4.8-11-11s4.8-11,11-11c6.1,0,11,4.8,11,11S127.3,95.4,121.2,95.4z M121.2,78.1c-3.5,0-6.4,2.9-6.4,6.4s2.9,6.4,6.4,6.4c3.5,0,6.4-2.9,6.4-6.4S124.9,78.1,121.2,78.1z M146.3,95.4c-6.1,0-11-4.8-11-11s4.8-11,11-11c6.1,0,11,4.8,11,11S152.4,95.4,146.3,95.4z M146.3,78.1c-3.5,0-6.4,2.9-6.4,6.4s2.9,6.4,6.4,6.4c3.5,0,6.4-2.9,6.4-6.4S149.8,78.1,146.3,78.1z M94,94.9c-6.1,0-11-4.8-11-11s4.8-11,11-11s11,4.8,11,11C104.6,90.1,99.8,94.9,94,94.9z M94,77.8c-3.5,0-6.4,2.9-6.4,6.4c0,3.5,2.9,6.4,6.4,6.4s6.4-2.9,6.4-6.4C100.4,80.5,97.4,77.8,94,77.8z M78.8,124.5v4.5h81.2l15.5-54.7H193v-4.5h-21.1l-15.7,54.7H78.8L78.8,124.5z M102.2,140.8c-5.3,0-9.3,4.3-9.3,9.3c0,5.3,4.3,9.3,9.3,9.3c5.3,0,9.3-4.3,9.3-9.3C111.6,145.1,107.3,140.8,102.2,140.8z M139.6,140.8c-5.1,0-9.3,4.3-9.3,9.3c0,5.1,4.3,9.3,9.3,9.3c5.3,0,9.3-4.3,9.3-9.3C149.2,145.1,145,140.8,139.6,140.8z M89.7,10L39.5,61v185h177V10H89.7z M202.9,232.7h-150V61h37.6V23.3h112.7v209.3L202.9,232.7L202.9,232.7z M86.5,205.7H169v-5.3H86.5V205.7z M86.5,187.8H169v-5.3H86.5V187.8z"/></g></g>
</svg>