
<svg id="Layer_1" data-name="Layer 1" xmlns="http://www.w3.org/2000/svg" width="275.48" height="96.59" viewBox="0 0 275.48 96.59"><title>Zalo logotype logo - Brandlogos.net</title><g id="Page-1"><path id="Combined-Shape" d="M410.39,329.43v-5.16h15.46v72.51H417a6.61,6.61,0,0,1-6.61-6.57h0a37.65,37.65,0,1,1,0-60.8ZM346.44,301v2.35c0,4.38-.59,8-3.44,12.16l-.34.39c-.62.71-2.08,2.36-2.78,3.26l-49.62,62.24h56.19v8.81a6.61,6.61,0,0,1-6.62,6.61H267v-4.15c0-5.09,1.27-7.36,2.86-9.72l52.9-65.43H269.23V301Zm98.15,95.83a5.51,5.51,0,0,1-5.51-5.5V301h16.55v95.83Zm60-75.07a37.91,37.91,0,1,1-38,37.9A37.94,37.94,0,0,1,504.55,321.72ZM388.14,382A22.14,22.14,0,1,0,366,359.82,22.16,22.16,0,0,0,388.14,382Zm116.4,0a22.3,22.3,0,1,0-22.33-22.31A22.32,22.32,0,0,0,504.55,381.94Z" transform="translate(-267.02 -300.96)" style="fill:#0068ff"/></g></svg>