<svg width="184" height="32" viewBox="0 0 184 32" fill="none" xmlns="http://www.w3.org/2000/svg">
<g clip-path="url(#clip0_1260_95)">
<path d="M5.09765 20.2789L0 23.1686L15.2367 31.9231L20.33 29.0334L5.09765 20.2789Z" fill="url(#paint0_linear_1260_95)"/>
<path style="mix-blend-mode:darken" opacity="0.2" d="M5.09765 20.2789L0 23.1686L15.2367 31.9231L20.33 29.0334L5.09765 20.2789Z" fill="url(#paint1_linear_1260_95)"/>
<path d="M25.4796 8.72455L30.5729 5.83489L20.4166 0L15.3232 2.88966L25.4796 8.72455Z" fill="url(#paint2_linear_1260_95)"/>
<path style="mix-blend-mode:darken" opacity="0.2" d="M25.4796 8.72455L30.5729 5.83489L20.4166 0L15.3232 2.88966L25.4796 8.72455Z" fill="url(#paint3_linear_1260_95)"/>
<path d="M25.4796 8.72455L25.4277 26.148L30.521 23.2583L30.5729 5.83488L25.4796 8.72455Z" fill="url(#paint4_linear_1260_95)"/>
<path style="mix-blend-mode:darken" opacity="0.2" d="M25.4796 8.72455L25.4277 26.148L30.521 23.2583L30.5729 5.83488L25.4796 8.72455Z" fill="url(#paint5_linear_1260_95)"/>
<path d="M15.2709 20.3088L15.2363 31.9231L20.3296 29.0334L20.347 23.2284L15.2709 20.3088Z" fill="url(#paint6_linear_1260_95)"/>
<path d="M20.417 17.4491V0L15.2891 2.88966V14.5039L20.417 17.4491Z" fill="url(#paint7_linear_1260_95)"/>
<path style="mix-blend-mode:darken" opacity="0.2" d="M20.417 17.4491V0L15.2891 2.88966V14.5039L20.417 17.4491Z" fill="url(#paint8_linear_1260_95)"/>
<path style="mix-blend-mode:darken" opacity="0.2" d="M15.258 20.3088L15.2363 31.9231L20.3296 29.0334L20.347 23.2284L15.258 20.3088Z" fill="url(#paint9_linear_1260_95)"/>
<path d="M5.13183 8.66479L0.0341797 11.5416L25.4272 26.1481L30.5205 23.2584L5.13183 8.66479Z" fill="url(#paint10_linear_1260_95)"/>
<path style="mix-blend-mode:darken" opacity="0.2" d="M5.13183 8.66479L0.0341797 11.5416L25.4272 26.1481L30.5205 23.2584L5.13183 8.66479Z" fill="url(#paint11_linear_1260_95)"/>
<path d="M5.13227 8.6647L0.034619 11.5415L0 23.1686L5.09765 20.2789L5.13227 8.6647Z" fill="url(#paint12_linear_1260_95)"/>
<path style="mix-blend-mode:darken" opacity="0.4" d="M5.13227 8.6647L0.034619 11.5415L0 23.1686L5.09765 20.2789L5.13227 8.6647Z" fill="url(#paint13_linear_1260_95)"/>
<path d="M164.176 15.3203L164.124 15.3631C164.748 14.8906 165.261 14.2894 165.626 13.6012C165.991 12.913 166.2 12.1545 166.238 11.3784C166.276 10.6024 166.142 9.82751 165.846 9.10781C165.549 8.38811 165.098 7.74091 164.522 7.21131L164.405 7.10872C163.418 6.2425 162.143 5.76351 160.822 5.76221H153.106V23.2199L156.979 19.5223V9.54527H160.571H160.593C161.056 9.57613 161.493 9.77266 161.821 10.0982C162.148 10.4237 162.345 10.8558 162.373 11.314C162.402 11.7722 162.261 12.2249 161.976 12.5878C161.691 12.9506 161.283 13.1986 160.826 13.2856C160.742 13.2992 160.657 13.3064 160.571 13.307H159.602C159.328 13.3241 159.053 13.3241 158.78 13.307V16.3975H160.545L162.739 23.1899L165.868 20.1977L164.176 15.3203Z" fill="#EE2424"/>
<path d="M50.0331 5.76222H55.3904L49.5831 23.2156H43.9575L38.2021 5.76222H43.568L45.9697 14.6107C46.3526 15.9552 46.6275 17.3273 46.7919 18.7144C46.8496 18.1444 46.9621 17.4477 47.1295 16.6241C47.2982 15.7692 47.4497 15.1322 47.5622 14.6578L50.0331 5.76222Z" fill="#EE2424"/>
<path d="M74.7551 23.2156H68.4977L62.0412 10.9217H61.9331C62.0831 12.8538 62.1595 14.33 62.1624 15.3502V23.2156H57.9346V5.76221H64.1703L70.5965 17.8937H70.67C70.5575 16.1325 70.5013 14.7219 70.5013 13.6532V5.76221H74.7551V23.2156Z" fill="#EE2424"/>
<path d="M88.6683 23.2156H78.1787V5.76221H88.6683V9.54954H82.9518V12.2939H87.4133V16.0769H82.9518V19.3727H88.6683V23.2156Z" fill="#EE2424"/>
<path d="M100.317 23.2156H95.5571V9.61795H91.2297V5.77077H104.619V9.61795H100.317V23.2156Z" fill="#EE2424"/>
<path d="M127.796 23.2156H122.17L120.478 15.611C120.401 15.2947 120.271 14.6578 120.102 13.7131C119.933 12.7684 119.799 11.9776 119.721 11.3364C119.652 11.8536 119.548 12.4991 119.405 13.2642C119.262 14.0294 119.115 14.739 118.973 15.4015C118.83 16.0641 118.246 18.6546 117.216 23.2327H111.59L107.185 5.76222H111.789L113.706 14.5338C114.142 16.4659 114.44 18.0062 114.602 19.1547C114.706 18.3425 114.893 17.2396 115.164 15.8461C115.433 14.4569 115.688 13.2813 115.917 12.3879L117.48 5.7836H121.898L123.412 12.3879C123.668 13.4438 123.932 14.6663 124.196 16.0513C124.46 17.4363 124.628 18.4707 124.728 19.1547C124.832 18.2713 125.12 16.7395 125.593 14.5594L127.549 5.7836H132.154L127.796 23.2156Z" fill="#EE2424"/>
<path d="M150.545 14.4782C150.545 17.328 149.837 19.4938 148.42 20.9757C147.004 22.4576 144.932 23.1999 142.206 23.2028C139.515 23.2028 137.452 22.4576 136.018 20.9671C134.584 19.4767 133.863 17.3066 133.854 14.4569C133.854 11.6356 134.576 9.48116 136.018 7.99359C137.461 6.50601 139.535 5.76222 142.241 5.76222C144.97 5.76222 147.038 6.50031 148.446 7.97649C149.854 9.45267 150.554 11.6199 150.545 14.4782ZM138.744 14.4782C138.744 17.7526 139.898 19.3898 142.206 19.3898C142.706 19.423 143.205 19.3311 143.659 19.1226C144.113 18.9141 144.506 18.5958 144.803 18.1972C145.38 17.4021 145.668 16.1624 145.668 14.4782C145.668 12.794 145.38 11.5444 144.803 10.7294C144.513 10.3284 144.124 10.007 143.674 9.79533C143.223 9.58368 142.726 9.48881 142.228 9.51964C139.905 9.51964 138.744 11.1725 138.744 14.4782Z" fill="#EE2424"/>
<path d="M183.913 23.2156H178.509L175.016 16.5429L173.601 17.3764V23.2156H168.807V5.76222H173.601V13.3412C174.042 12.5689 174.532 11.825 175.068 11.1141L178.777 5.76222H183.996L178.426 13.5806L183.913 23.2156Z" fill="#EE2424"/>
<path d="M131.985 31.0637C132.043 31.1598 132.125 31.2394 132.223 31.2946C132.325 31.3534 132.436 31.3939 132.552 31.4143C132.676 31.4402 132.802 31.4531 132.929 31.4527C133.034 31.459 133.139 31.459 133.245 31.4527C133.349 31.4379 133.45 31.4106 133.548 31.3715C133.639 31.3344 133.718 31.2739 133.777 31.1963C133.84 31.1123 133.872 31.0098 133.868 30.9056C133.871 30.8327 133.855 30.7603 133.822 30.6952C133.788 30.6301 133.739 30.5745 133.677 30.5337C133.534 30.442 133.376 30.3741 133.21 30.3328C133.023 30.2815 132.819 30.2345 132.6 30.1917C132.391 30.1518 132.187 30.0917 131.99 30.0122C131.812 29.9408 131.652 29.8313 131.522 29.6916C131.389 29.5293 131.322 29.3232 131.336 29.1145C131.331 28.9404 131.376 28.7684 131.466 28.6186C131.552 28.483 131.667 28.3678 131.804 28.2809C131.947 28.193 132.103 28.128 132.267 28.0886C132.435 28.0479 132.608 28.0278 132.782 28.0287C132.985 28.0265 133.188 28.0452 133.387 28.0843C133.562 28.1148 133.728 28.1802 133.876 28.2767C134.02 28.3687 134.138 28.4952 134.218 28.6443C134.31 28.8251 134.362 29.0234 134.37 29.2256H133.716C133.71 29.1164 133.676 29.0106 133.617 28.9179C133.562 28.8388 133.491 28.7719 133.409 28.7212C133.321 28.6725 133.226 28.6365 133.128 28.6144C133.025 28.5924 132.921 28.581 132.816 28.5802C132.719 28.5804 132.622 28.589 132.526 28.6058C132.435 28.6174 132.346 28.6434 132.262 28.6828C132.186 28.714 132.119 28.764 132.068 28.8281C132.013 28.8961 131.984 28.9807 131.985 29.0675C131.983 29.1177 131.993 29.1678 132.012 29.2142C132.031 29.2607 132.061 29.3025 132.098 29.3368C132.193 29.4099 132.302 29.4636 132.418 29.4949C132.548 29.5467 132.683 29.5868 132.821 29.6146L133.253 29.713C133.411 29.7466 133.568 29.7894 133.721 29.8412C133.866 29.8858 134.003 29.9521 134.127 30.0378C134.243 30.1172 134.339 30.2209 134.409 30.3413C134.487 30.4825 134.526 30.6419 134.521 30.803C134.527 31.0051 134.476 31.2049 134.374 31.3801C134.278 31.5301 134.147 31.656 133.993 31.7477C133.829 31.8428 133.649 31.9093 133.461 31.9443C133.267 31.9818 133.07 32.0004 132.872 31.9999C132.666 32.0016 132.459 31.9786 132.258 31.9315C132.073 31.8921 131.897 31.8197 131.739 31.7178C131.589 31.6135 131.466 31.4759 131.38 31.3159C131.286 31.1282 131.236 30.9224 131.232 30.7132H131.869C131.877 30.838 131.917 30.9586 131.985 31.0637Z" fill="#515558"/>
<path d="M138.869 31.9059C138.729 31.9765 138.572 32.009 138.415 31.9999C138.271 32.0068 138.129 31.9577 138.021 31.8631C137.967 31.8025 137.925 31.7313 137.9 31.654C137.875 31.5767 137.866 31.4951 137.874 31.4143C137.714 31.6141 137.504 31.7689 137.264 31.8631C136.865 32.014 136.428 32.0408 136.013 31.9401C135.866 31.907 135.728 31.8444 135.607 31.7563C135.489 31.671 135.395 31.5578 135.334 31.4271C135.261 31.2735 135.225 31.1052 135.23 30.9355C135.224 30.7511 135.262 30.5679 135.343 30.4012C135.413 30.2678 135.516 30.1533 135.641 30.0678C135.771 29.9751 135.918 29.9083 136.074 29.8711C136.233 29.8255 136.395 29.7884 136.559 29.76C136.732 29.7258 136.901 29.7002 137.056 29.6831C137.203 29.6702 137.347 29.6445 137.489 29.6061C137.595 29.5838 137.693 29.5353 137.775 29.465C137.811 29.4305 137.839 29.3884 137.857 29.3419C137.875 29.2953 137.882 29.2454 137.879 29.1957C137.884 29.0797 137.857 28.9644 137.801 28.8623C137.75 28.7828 137.68 28.7167 137.597 28.67C137.511 28.625 137.417 28.5961 137.32 28.5845C137.22 28.5675 137.119 28.5589 137.017 28.5588C136.783 28.5508 136.55 28.6039 136.342 28.7127C136.247 28.7744 136.17 28.8599 136.119 28.9605C136.068 29.0611 136.045 29.1732 136.052 29.2855H135.416C135.419 29.0776 135.469 28.8731 135.563 28.6871C135.651 28.528 135.776 28.3918 135.927 28.2895C136.083 28.188 136.256 28.1142 136.437 28.0715C136.641 28.0275 136.848 28.006 137.056 28.0074C137.23 28.0081 137.403 28.0196 137.576 28.0416C137.74 28.0642 137.898 28.1164 138.043 28.1955C138.184 28.2686 138.301 28.3797 138.38 28.5161C138.464 28.6873 138.497 28.8785 138.476 29.0675V31.0296C138.473 31.1386 138.483 31.2477 138.506 31.3544C138.506 31.4228 138.58 31.457 138.679 31.457C138.745 31.4563 138.811 31.4462 138.874 31.4271L138.869 31.9059ZM137.835 29.9438C137.743 30.0098 137.636 30.0537 137.524 30.072C137.394 30.0977 137.255 30.1233 137.113 30.1404L136.68 30.196C136.547 30.2183 136.416 30.2541 136.29 30.3029C136.181 30.3492 136.084 30.421 136.009 30.5123C135.932 30.6208 135.894 30.7518 135.901 30.8842C135.898 30.9768 135.92 31.0684 135.966 31.1493C136.005 31.2189 136.062 31.2777 136.13 31.3202C136.201 31.366 136.281 31.3979 136.364 31.4143C136.458 31.4352 136.553 31.4453 136.65 31.4442C136.833 31.4488 137.016 31.4213 137.19 31.363C137.324 31.3141 137.447 31.2417 137.554 31.1493C137.642 31.0696 137.714 30.9738 137.766 30.8671C137.807 30.7785 137.829 30.6825 137.831 30.585L137.835 29.9438Z" fill="#515558"/>
<path d="M139.285 28.6401V28.0844H139.934V27.5244C139.925 27.3943 139.944 27.2637 139.991 27.1418C140.038 27.0199 140.112 26.9097 140.207 26.8191C140.434 26.6437 140.72 26.5584 141.008 26.5797H141.211C141.281 26.5882 141.351 26.6025 141.419 26.6225V27.1696C141.359 27.1519 141.298 27.139 141.237 27.1312H141.059C140.933 27.123 140.807 27.1544 140.7 27.2209C140.652 27.2633 140.615 27.3166 140.593 27.3761C140.57 27.4357 140.562 27.4998 140.57 27.5629V28.093H141.319V28.6401H140.57V31.9102H139.934V28.6401H139.285Z" fill="#515558"/>
<path d="M144.841 31.6752C144.523 31.9008 144.138 32.0151 143.746 32.0001C143.47 32.0084 143.196 31.9573 142.941 31.8505C142.719 31.753 142.522 31.6069 142.366 31.423C142.209 31.2351 142.092 31.0187 142.02 30.7861C141.939 30.5239 141.896 30.2521 141.89 29.9782C141.886 29.706 141.932 29.4353 142.024 29.1789C142.11 28.9484 142.237 28.7354 142.4 28.5505C142.563 28.3705 142.764 28.2272 142.988 28.1306C143.212 28.034 143.454 27.9862 143.699 27.9905C144.002 27.9763 144.302 28.0491 144.564 28.2C144.786 28.335 144.974 28.5176 145.114 28.7343C145.249 28.9541 145.344 29.1958 145.395 29.4482C145.448 29.6881 145.47 29.9337 145.46 30.1791H142.561C142.556 30.3394 142.577 30.4994 142.621 30.6536C142.662 30.8089 142.739 30.9526 142.845 31.0735C142.952 31.1945 143.086 31.2892 143.236 31.3504C143.408 31.423 143.594 31.458 143.781 31.453C144.016 31.4632 144.248 31.3988 144.443 31.2692C144.625 31.1303 144.747 30.9288 144.785 30.7049H145.399C145.344 31.0862 145.144 31.4328 144.841 31.6752ZM144.685 29.2173C144.632 29.0887 144.553 28.9722 144.452 28.8754C144.294 28.7238 144.095 28.6209 143.879 28.5792C143.663 28.5375 143.44 28.5587 143.236 28.6403C143.107 28.6959 142.991 28.7758 142.894 28.8754C142.799 28.9752 142.723 29.091 142.669 29.2173C142.612 29.3536 142.579 29.4979 142.569 29.6448H144.794C144.783 29.4972 144.746 29.3526 144.685 29.2173Z" fill="#515558"/>
<path d="M152.051 31.906C151.91 31.976 151.754 32.0084 151.597 32C151.525 32.0039 151.454 31.9938 151.386 31.9703C151.318 31.9468 151.256 31.9104 151.203 31.8632C151.148 31.8026 151.107 31.7313 151.081 31.6541C151.056 31.5768 151.047 31.4952 151.056 31.4144C150.894 31.6124 150.684 31.7668 150.446 31.8632C150.046 32.0141 149.61 32.0409 149.195 31.9402C149.047 31.9071 148.907 31.8445 148.784 31.7563C148.669 31.6689 148.575 31.5562 148.511 31.4272C148.441 31.265 148.405 31.0905 148.405 30.9142C148.405 30.7379 148.441 30.5635 148.511 30.4013C148.582 30.269 148.682 30.1548 148.805 30.0679C148.936 29.9765 149.083 29.9098 149.238 29.8712C149.398 29.8252 149.559 29.788 149.723 29.7601C149.896 29.7259 150.065 29.7002 150.221 29.6831C150.367 29.6699 150.512 29.6441 150.653 29.6062C150.759 29.5839 150.857 29.5354 150.939 29.4651C150.975 29.4306 151.003 29.3885 151.021 29.342C151.039 29.2954 151.047 29.2455 151.043 29.1958C151.048 29.0798 151.021 28.9645 150.965 28.8624C150.914 28.7829 150.844 28.7168 150.761 28.6701C150.675 28.6251 150.581 28.5962 150.485 28.5846C150.384 28.5677 150.283 28.5591 150.182 28.5589C149.947 28.5509 149.714 28.604 149.507 28.7128C149.411 28.7745 149.334 28.86 149.283 28.9606C149.232 29.0612 149.209 29.1733 149.217 29.2856H148.58C148.581 29.0775 148.632 28.8725 148.728 28.6872C148.815 28.5293 148.938 28.3933 149.087 28.2896C149.244 28.1881 149.419 28.1143 149.602 28.0716C149.805 28.0276 150.012 28.0061 150.221 28.0075C150.394 28.0082 150.568 28.0196 150.74 28.0417C150.904 28.0643 151.062 28.1165 151.207 28.1956C151.346 28.2711 151.463 28.3818 151.545 28.5162C151.635 28.6814 151.678 28.8674 151.67 29.0548V31.0168C151.667 31.1257 151.675 31.2347 151.696 31.3417C151.696 31.4101 151.774 31.4443 151.874 31.4443C151.94 31.4435 152.005 31.4335 152.068 31.4144L152.051 31.906ZM151.025 29.9439C150.933 30.0091 150.826 30.0529 150.714 30.0721C150.584 30.0978 150.446 30.1234 150.303 30.1405L149.87 30.1961C149.737 30.2172 149.606 30.2531 149.481 30.303C149.37 30.348 149.273 30.4201 149.199 30.5124C149.122 30.6208 149.084 30.7519 149.091 30.8843C149.089 30.9763 149.109 31.0674 149.152 31.1493C149.194 31.2183 149.252 31.2768 149.32 31.3203C149.391 31.3669 149.471 31.3989 149.554 31.4144C149.648 31.4353 149.744 31.4454 149.84 31.4443C150.022 31.4493 150.204 31.4218 150.376 31.3631C150.511 31.3141 150.635 31.2418 150.744 31.1493C150.833 31.0697 150.905 30.9739 150.956 30.8672C150.997 30.7786 151.019 30.6826 151.021 30.5851L151.025 29.9439Z" fill="#515558"/>
<path d="M153.453 28.093V28.7C153.574 28.4781 153.757 28.2951 153.981 28.1725C154.204 28.0498 154.457 27.9926 154.712 28.0075C154.929 28.001 155.145 28.0358 155.348 28.1101C155.515 28.1672 155.664 28.2658 155.781 28.3965C155.886 28.5211 155.961 28.6671 156.002 28.8239C156.047 29.0101 156.069 29.201 156.067 29.3925V31.906H155.431V29.3283C155.436 29.2256 155.421 29.1228 155.384 29.0264C155.348 28.93 155.291 28.8421 155.219 28.7684C155.142 28.6968 155.051 28.6413 154.953 28.6053C154.854 28.5693 154.748 28.5535 154.643 28.5589C154.47 28.5552 154.298 28.5857 154.137 28.6487C154.001 28.705 153.879 28.7912 153.782 28.9009C153.686 29.0119 153.613 29.1415 153.57 29.2813C153.52 29.4361 153.495 29.5977 153.496 29.7601V31.8974H152.86V28.0502L153.453 28.093Z" fill="#515558"/>
<path d="M160.048 31.9188V31.4015C159.948 31.6103 159.772 31.7738 159.555 31.8589C159.319 31.9552 159.066 32.0032 158.81 32C158.54 32.0052 158.272 31.9496 158.027 31.8376C157.812 31.7377 157.623 31.5917 157.473 31.4101C157.319 31.2221 157.202 31.0076 157.127 30.7774C157.051 30.5279 157.013 30.2686 157.014 30.008C157.015 29.7478 157.051 29.4889 157.123 29.2386C157.191 29.0084 157.305 28.7936 157.456 28.6059C157.606 28.424 157.795 28.2779 158.01 28.1785C158.252 28.0674 158.517 28.0133 158.784 28.0203C158.892 28.0203 158.999 28.0303 159.105 28.0502C159.224 28.069 159.34 28.102 159.451 28.1485C159.566 28.1965 159.675 28.2582 159.775 28.3323C159.88 28.4098 159.969 28.5072 160.035 28.6187V26.6353H160.671V31.9188H160.048ZM157.763 30.5594C157.806 30.7239 157.879 30.879 157.98 31.0168C158.076 31.1505 158.204 31.259 158.352 31.3332C158.518 31.4161 158.702 31.4572 158.888 31.4528C159.078 31.4585 159.266 31.4158 159.433 31.3289C159.579 31.2472 159.705 31.1348 159.801 30.9997C159.899 30.8583 159.969 30.7004 160.009 30.5338C160.052 30.3633 160.074 30.1881 160.074 30.0123C160.073 29.8278 160.05 29.6441 160.005 29.4651C159.964 29.2993 159.892 29.1427 159.793 29.0035C159.692 28.8694 159.562 28.7598 159.412 28.6829C159.238 28.5965 159.044 28.5539 158.849 28.5589C158.659 28.5536 158.471 28.5978 158.304 28.6871C158.157 28.7655 158.033 28.8805 157.945 29.0206C157.851 29.1642 157.785 29.3236 157.75 29.4908C157.71 29.672 157.69 29.8568 157.69 30.0422C157.69 30.2171 157.715 30.3912 157.763 30.5594Z" fill="#515558"/>
<path d="M164.656 31.0638C164.712 31.1597 164.793 31.2393 164.89 31.2946C164.992 31.3528 165.103 31.3933 165.219 31.4143C165.344 31.44 165.472 31.4529 165.6 31.4528C165.703 31.4588 165.807 31.4588 165.911 31.4528C166.015 31.4385 166.117 31.4112 166.214 31.3715C166.305 31.3345 166.384 31.2739 166.443 31.1963C166.506 31.1123 166.538 31.0099 166.534 30.9056C166.538 30.8331 166.523 30.7609 166.49 30.6959C166.457 30.6308 166.409 30.575 166.348 30.5337C166.204 30.4435 166.046 30.3758 165.881 30.3328C165.691 30.2815 165.487 30.2345 165.266 30.1917C165.058 30.1512 164.853 30.0911 164.656 30.0122C164.478 29.9408 164.319 29.8313 164.189 29.6916C164.055 29.5293 163.989 29.3232 164.003 29.1145C163.998 28.9404 164.043 28.7685 164.133 28.6187C164.219 28.4831 164.334 28.3678 164.47 28.281C164.614 28.1938 164.77 28.1289 164.933 28.0886C165.102 28.0479 165.275 28.0278 165.448 28.0288C165.652 28.0264 165.855 28.045 166.054 28.0843C166.23 28.1142 166.398 28.1797 166.547 28.2767C166.69 28.369 166.806 28.4955 166.885 28.6443C166.977 28.8252 167.029 29.0234 167.036 29.2257H166.4C166.396 29.1161 166.361 29.0098 166.301 28.9179C166.247 28.8379 166.176 28.7708 166.093 28.7213C166.005 28.6718 165.91 28.6358 165.812 28.6144C165.709 28.5925 165.605 28.581 165.5 28.5802C165.404 28.5803 165.309 28.5888 165.215 28.6059C165.121 28.617 165.031 28.643 164.946 28.6828C164.871 28.7163 164.805 28.766 164.751 28.8281C164.701 28.8993 164.675 28.9848 164.678 29.0718C164.677 29.1223 164.687 29.1725 164.707 29.2189C164.727 29.2654 164.757 29.307 164.795 29.3411C164.88 29.4179 164.98 29.4774 165.089 29.5164C165.219 29.5676 165.354 29.6076 165.491 29.636L165.924 29.7344C166.082 29.768 166.238 29.8108 166.392 29.8626C166.537 29.9063 166.674 29.9727 166.798 30.0592C166.914 30.1397 167.011 30.2431 167.084 30.3627C167.159 30.505 167.196 30.6639 167.192 30.8244C167.2 31.0267 167.149 31.2271 167.045 31.4015C166.949 31.5515 166.818 31.6774 166.664 31.7691C166.499 31.8642 166.319 31.9307 166.132 31.9657C165.938 32.0032 165.741 32.0218 165.543 32.0213C165.337 32.023 165.13 32 164.929 31.9529C164.745 31.9143 164.57 31.8418 164.414 31.7392C164.262 31.6373 164.138 31.499 164.055 31.3373C163.958 31.1506 163.906 30.9444 163.903 30.7346H164.539C164.549 30.8524 164.589 30.9658 164.656 31.0638Z" fill="#515558"/>
<path d="M171.554 31.906C171.412 31.976 171.254 32.0084 171.096 32C170.952 32.0064 170.81 31.9574 170.702 31.8632C170.648 31.802 170.607 31.7307 170.582 31.6536C170.557 31.5765 170.548 31.4951 170.555 31.4144C170.395 31.6142 170.184 31.769 169.945 31.8632C169.705 31.9557 169.449 32.0021 169.192 32C169.024 31.9998 168.857 31.9798 168.694 31.9402C168.547 31.9071 168.409 31.8445 168.287 31.7563C168.17 31.6711 168.076 31.5578 168.015 31.4272C167.942 31.2736 167.906 31.1052 167.911 30.9356C167.905 30.7512 167.943 30.5679 168.023 30.4013C168.095 30.2687 168.197 30.1545 168.322 30.0679C168.452 29.9748 168.599 29.9079 168.755 29.8712C168.913 29.8252 169.073 29.7881 169.235 29.7601C169.412 29.7259 169.577 29.7002 169.733 29.6831C169.879 29.6708 170.024 29.645 170.165 29.6062C170.271 29.5839 170.369 29.5354 170.451 29.4651C170.487 29.4306 170.515 29.3885 170.533 29.342C170.551 29.2954 170.559 29.2455 170.555 29.1958C170.56 29.0798 170.533 28.9645 170.477 28.8624C170.427 28.784 170.358 28.7182 170.278 28.67C170.19 28.6259 170.095 28.597 169.997 28.5846C169.897 28.5675 169.795 28.559 169.694 28.5589C169.46 28.5496 169.228 28.6028 169.023 28.7128C168.927 28.7743 168.85 28.8596 168.798 28.9602C168.746 29.0607 168.722 29.173 168.729 29.2856H168.093C168.095 29.0771 168.147 28.8721 168.244 28.6871C168.329 28.5274 168.452 28.3909 168.603 28.2896C168.759 28.1881 168.932 28.1143 169.114 28.0716C169.317 28.0278 169.525 28.0063 169.733 28.0075C169.906 28.0082 170.08 28.0196 170.252 28.0417C170.416 28.0643 170.574 28.1165 170.719 28.1956C170.86 28.2686 170.977 28.3798 171.057 28.5162C171.15 28.6801 171.195 28.8668 171.187 29.0548V31.0168C171.183 31.1257 171.192 31.2347 171.213 31.3417C171.213 31.4101 171.286 31.4443 171.386 31.4443C171.453 31.4433 171.52 31.4332 171.585 31.4144L171.554 31.906ZM170.52 29.9439C170.426 30.0091 170.318 30.0529 170.204 30.0721C170.075 30.0978 169.94 30.1234 169.798 30.1405L169.365 30.1961C169.232 30.2184 169.101 30.2542 168.975 30.303C168.866 30.3504 168.77 30.4221 168.694 30.5124C168.619 30.6218 168.581 30.7521 168.586 30.8843C168.583 30.9768 168.605 31.0685 168.651 31.1493C168.692 31.2181 168.748 31.2766 168.815 31.3203C168.887 31.3654 168.966 31.3972 169.049 31.4144C169.143 31.4353 169.238 31.4454 169.335 31.4443C169.518 31.4492 169.701 31.4217 169.875 31.3631C170.01 31.3132 170.134 31.2409 170.243 31.1493C170.331 31.0696 170.401 30.9738 170.451 30.8672C170.495 30.7795 170.519 30.6831 170.52 30.5851V29.9439Z" fill="#515558"/>
<path d="M173.415 31.9188L171.979 28.0716H172.688L173.774 31.2605L174.83 28.0716H175.497L174.082 31.9188H173.415Z" fill="#515558"/>
<path d="M179.049 31.6752C178.732 31.9028 178.346 32.0174 177.954 32.0001C177.678 32.0083 177.404 31.9573 177.149 31.8504C176.928 31.754 176.732 31.6076 176.578 31.423C176.419 31.2364 176.3 31.0197 176.228 30.7861C176.147 30.5238 176.104 30.252 176.098 29.9781C176.094 29.7059 176.14 29.4353 176.232 29.1788C176.318 28.9483 176.445 28.7353 176.608 28.5504C176.773 28.3719 176.973 28.2297 177.197 28.1332C177.421 28.0367 177.663 27.9881 177.907 27.9904C178.209 27.9777 178.51 28.0504 178.772 28.1999C178.992 28.3361 179.178 28.5186 179.317 28.7342C179.455 28.9532 179.552 29.1951 179.603 29.4481C179.654 29.6882 179.675 29.9339 179.664 30.1791H176.773C176.765 30.3392 176.784 30.4996 176.829 30.6535C176.874 30.8011 176.949 30.938 177.05 31.0554C177.154 31.1753 177.284 31.2703 177.431 31.3332C177.603 31.4048 177.789 31.4398 177.976 31.4358C178.211 31.4473 178.443 31.3828 178.638 31.252C178.82 31.1131 178.942 30.9116 178.98 30.6877H179.607C179.558 31.0759 179.358 31.43 179.049 31.6752ZM178.893 29.2173C178.84 29.0886 178.761 28.9722 178.66 28.8753C178.562 28.777 178.446 28.6986 178.318 28.6445C178.181 28.5876 178.034 28.5585 177.885 28.559C177.737 28.5589 177.589 28.5879 177.452 28.6445C177.324 28.7001 177.208 28.78 177.11 28.8796C177.015 28.9794 176.939 29.0952 176.885 29.2215C176.828 29.3574 176.796 29.5021 176.79 29.649H179.015C178.997 29.4997 178.956 29.354 178.893 29.2173Z" fill="#515558"/>
<path d="M183.36 31.9188V31.4015C183.26 31.6103 183.083 31.7738 182.866 31.8589C182.632 31.9549 182.38 32.0028 182.126 32C181.856 32.0061 181.588 31.9505 181.343 31.8376C181.128 31.7389 180.938 31.5926 180.789 31.4101C180.637 31.2225 180.522 31.0078 180.452 30.7774C180.374 30.5283 180.336 30.2687 180.339 30.008C180.337 29.7477 180.373 29.4885 180.447 29.2386C180.513 29.008 180.625 28.7928 180.776 28.6059C180.927 28.425 181.116 28.279 181.33 28.1785C181.572 28.0674 181.838 28.0133 182.105 28.0203C182.212 28.0203 182.319 28.0303 182.425 28.0502C182.544 28.069 182.66 28.102 182.771 28.1485C182.887 28.1946 182.997 28.2565 183.096 28.3323C183.201 28.4098 183.289 28.5072 183.355 28.6187V26.6353H183.996V31.9188H183.36ZM181.075 30.5594C181.119 30.7232 181.193 30.878 181.291 31.0168C181.387 31.1505 181.515 31.259 181.663 31.3332C181.904 31.4653 182.185 31.5044 182.453 31.4428C182.721 31.3811 182.956 31.2232 183.113 30.9997C183.211 30.8583 183.281 30.7004 183.321 30.5338C183.364 30.3633 183.386 30.1881 183.386 30.0123C183.385 29.8278 183.361 29.6441 183.316 29.4651C183.276 29.2993 183.204 29.1427 183.104 29.0035C183.004 28.8694 182.873 28.7598 182.723 28.6829C182.551 28.5965 182.359 28.5539 182.165 28.5589C181.974 28.553 181.784 28.5973 181.616 28.6871C181.47 28.7668 181.346 28.8814 181.256 29.0206C181.165 29.1652 181.099 29.3242 181.062 29.4908C181.022 29.672 181.002 29.8568 181.001 30.0422C181.002 30.2171 181.026 30.3912 181.075 30.5594Z" fill="#515558"/>
</g>
<defs>
<linearGradient id="paint0_linear_1260_95" x1="20.4169" y1="32.6189" x2="2.79329" y2="21.1363" gradientUnits="userSpaceOnUse">
<stop stop-color="#F47920"/>
<stop offset="0.11" stop-color="#F25E21"/>
<stop offset="0.24" stop-color="#F04522"/>
<stop offset="0.38" stop-color="#EF3323"/>
<stop offset="0.52" stop-color="#EE2824"/>
<stop offset="0.68" stop-color="#EE2424"/>
<stop offset="1" stop-color="#ED1C24"/>
</linearGradient>
<linearGradient id="paint1_linear_1260_95" x1="18.0299" y1="30.5985" x2="2.66444" y2="21.5925" gradientUnits="userSpaceOnUse">
<stop stop-color="white"/>
<stop offset="0.17" stop-color="#F4F4F4"/>
<stop offset="0.47" stop-color="#D6D6D8"/>
<stop offset="0.87" stop-color="#A5A7A9"/>
<stop offset="1" stop-color="#939598"/>
</linearGradient>
<linearGradient id="paint2_linear_1260_95" x1="16.4795" y1="0.739694" x2="37.8004" y2="12.9659" gradientUnits="userSpaceOnUse">
<stop stop-color="#ED1C24"/>
<stop offset="0.2" stop-color="#EE2424"/>
<stop offset="0.36" stop-color="#EE2924"/>
<stop offset="0.54" stop-color="#EF3823"/>
<stop offset="0.75" stop-color="#F15022"/>
<stop offset="0.96" stop-color="#F37120"/>
<stop offset="1" stop-color="#F47920"/>
</linearGradient>
<linearGradient id="paint3_linear_1260_95" x1="15.4257" y1="2.92096" x2="30.4888" y2="5.8768" gradientUnits="userSpaceOnUse">
<stop stop-color="#939598"/>
<stop offset="0.5" stop-color="#C7C8CA"/>
<stop offset="1" stop-color="white"/>
</linearGradient>
<linearGradient id="paint4_linear_1260_95" x1="28.0454" y1="1.13693" x2="27.9759" y2="24.8697" gradientUnits="userSpaceOnUse">
<stop stop-color="#F47920"/>
<stop offset="0.11" stop-color="#F36621"/>
<stop offset="0.36" stop-color="#F04223"/>
<stop offset="0.55" stop-color="#EF2C24"/>
<stop offset="0.68" stop-color="#EE2424"/>
<stop offset="1" stop-color="#ED1C24"/>
</linearGradient>
<linearGradient id="paint5_linear_1260_95" x1="28.027" y1="7.26247" x2="27.9756" y2="24.8098" gradientUnits="userSpaceOnUse">
<stop stop-color="white"/>
<stop offset="0.17" stop-color="#F4F4F4"/>
<stop offset="0.47" stop-color="#D6D6D8"/>
<stop offset="0.87" stop-color="#A5A7A9"/>
<stop offset="1" stop-color="#939598"/>
</linearGradient>
<linearGradient id="paint6_linear_1260_95" x1="17.8269" y1="15.9486" x2="17.7841" y2="30.5337" gradientUnits="userSpaceOnUse">
<stop stop-color="#F47920"/>
<stop offset="0.5" stop-color="#EE2424"/>
<stop offset="1" stop-color="#ED1C24"/>
</linearGradient>
<linearGradient id="paint7_linear_1260_95" x1="17.8881" y1="-1.29519" x2="17.837" y2="16.1325" gradientUnits="userSpaceOnUse">
<stop stop-color="#F47920"/>
<stop offset="0.02" stop-color="#F47420"/>
<stop offset="0.16" stop-color="#F15122"/>
<stop offset="0.29" stop-color="#EF3823"/>
<stop offset="0.4" stop-color="#EE2924"/>
<stop offset="0.5" stop-color="#EE2424"/>
<stop offset="1" stop-color="#ED1C24"/>
</linearGradient>
<linearGradient id="paint8_linear_1260_95" x1="17.8509" y1="1.70131" x2="17.8509" y2="15.9316" gradientUnits="userSpaceOnUse">
<stop stop-color="white"/>
<stop offset="1" stop-color="#939598"/>
</linearGradient>
<linearGradient id="paint9_linear_1260_95" x1="17.7938" y1="30.7903" x2="17.7938" y2="21.852" gradientUnits="userSpaceOnUse">
<stop stop-color="white"/>
<stop offset="0.09" stop-color="#DFE0E0"/>
<stop offset="0.2" stop-color="#BDBDBE"/>
<stop offset="0.33" stop-color="#A0A1A3"/>
<stop offset="0.46" stop-color="#8A8B8D"/>
<stop offset="0.61" stop-color="#7A7B7E"/>
<stop offset="0.77" stop-color="#717275"/>
<stop offset="1" stop-color="#6E6F72"/>
</linearGradient>
<linearGradient id="paint10_linear_1260_95" x1="37.3047" y1="30.2575" x2="2.95366" y2="9.71783" gradientUnits="userSpaceOnUse">
<stop stop-color="#F47920"/>
<stop offset="0.05" stop-color="#F47320"/>
<stop offset="0.71" stop-color="#EE2424"/>
<stop offset="0.75" stop-color="#EE2324"/>
<stop offset="1" stop-color="#ED1C24"/>
</linearGradient>
<linearGradient id="paint11_linear_1260_95" x1="31.1273" y1="26.653" x2="3.09023" y2="9.88873" gradientUnits="userSpaceOnUse">
<stop stop-color="white"/>
<stop offset="0.17" stop-color="#F4F4F4"/>
<stop offset="0.47" stop-color="#D6D6D8"/>
<stop offset="0.87" stop-color="#A5A7A9"/>
<stop offset="1" stop-color="#939598"/>
</linearGradient>
<linearGradient id="paint12_linear_1260_95" x1="5.72409" y1="5.6625" x2="0.408581" y2="23.3415" gradientUnits="userSpaceOnUse">
<stop stop-color="#F47920"/>
<stop offset="0.13" stop-color="#F25F21"/>
<stop offset="0.32" stop-color="#F03F23"/>
<stop offset="0.47" stop-color="#EE2B24"/>
<stop offset="0.58" stop-color="#EE2424"/>
<stop offset="1" stop-color="#ED1C24"/>
</linearGradient>
<linearGradient id="paint13_linear_1260_95" x1="2.58344" y1="11.1141" x2="2.54544" y2="22.335" gradientUnits="userSpaceOnUse">
<stop stop-color="white"/>
<stop offset="0.17" stop-color="#F4F5F5"/>
<stop offset="0.45" stop-color="#D8D9DA"/>
<stop offset="0.83" stop-color="#ABACAF"/>
<stop offset="1" stop-color="#939598"/>
</linearGradient>
<clipPath id="clip0_1260_95">
<rect width="184" height="32" fill="white"/>
</clipPath>
</defs>
</svg>
