<svg width="608" height="246" viewBox="0 0 608 246" fill="none" xmlns="http://www.w3.org/2000/svg">
<g opacity="0.5">
<!-- Barcode - voucher scan -->
<rect x="420" y="40" width="6" height="120" fill="white" fill-opacity="0.4"/>
<rect x="432" y="40" width="4" height="120" fill="white" fill-opacity="0.35"/>
<rect x="442" y="40" width="8" height="120" fill="white" fill-opacity="0.4"/>
<rect x="456" y="40" width="4" height="120" fill="white" fill-opacity="0.3"/>
<rect x="466" y="40" width="6" height="120" fill="white" fill-opacity="0.4"/>
<rect x="478" y="40" width="4" height="120" fill="white" fill-opacity="0.35"/>
<rect x="488" y="40" width="10" height="120" fill="white" fill-opacity="0.4"/>
<rect x="504" y="40" width="4" height="120" fill="white" fill-opacity="0.35"/>
<rect x="514" y="40" width="6" height="120" fill="white" fill-opacity="0.4"/>
<rect x="526" y="40" width="8" height="120" fill="white" fill-opacity="0.35"/>
<!-- Price tag / discount shape -->
<path d="M300 60 L380 60 L400 100 L380 140 L300 140 L280 100 Z" fill="none" stroke="white" stroke-width="1" stroke-opacity="0.4"/>
<path d="M310 95 L330 95" stroke="white" stroke-width="1" stroke-opacity="0.35"/>
<!-- Percent / discount -->
<circle cx="200" cy="120" r="25" fill="none" stroke="white" stroke-width="1" stroke-opacity="0.35"/>
<path d="M185 105 L215 135 M215 105 L185 135" stroke="white" stroke-width="1" stroke-opacity="0.35"/>
</g>
</svg>
