<svg width="608" height="246" viewBox="0 0 608 246" fill="none" xmlns="http://www.w3.org/2000/svg">
<mask id="mask0" mask-type="alpha" maskUnits="userSpaceOnUse" x="22" y="-18" width="553" height="283">
<rect x="22.7188" y="-17.8215" width="551.681" height="281.97" fill="url(#paint0_linear)"/>
</mask>
<g mask="url(#mask0)">
<path d="M496.551 -6.78788L564.933 297.779L415.793 265.55L343.519 -22.1136L496.551 -6.78788Z" fill="url(#paint1_linear)" fill-opacity="0.12"/>
<path d="M624.727 -4.95362L657.921 323.489L498.881 263.942L465.687 -64.5002L624.727 -4.95362Z" fill="url(#paint2_linear)" fill-opacity="0.08"/>
<path d="M391.369 28.8238L506.02 302.024L353.539 292.382L238.888 19.1816L391.369 28.8238Z" fill="url(#paint3_linear)" fill-opacity="0.1"/>
<path d="M306.592 67.6691L439.827 333.608L284.529 333.006L151.295 67.0671L306.592 67.6691Z" fill="url(#paint4_linear)" fill-opacity="0.1"/>
<path d="M237.696 114.803L389.766 370.439L234.83 381.04L82.7593 125.405L237.696 114.803Z" fill="url(#paint5_linear)" fill-opacity="0.1"/>
<path d="M179.831 167.855L342.975 416.57L188.653 433.961L25.5095 185.247L179.831 167.855Z" fill="url(#paint6_linear)" fill-opacity="0.1"/>
<path d="M129.257 223.157L292.401 471.872L138.079 489.264L-25.0647 240.549L129.257 223.157Z" fill="url(#paint7_linear)" fill-opacity="0.1"/>
</g>
<defs>
<linearGradient id="paint0_linear" x1="22.7188" y1="123.164" x2="574.4" y2="123.164" gradientUnits="userSpaceOnUse">
<stop stop-color="#634CF2"/>
<stop offset="1" stop-color="#6799F8"/>
</linearGradient>
<linearGradient id="paint1_linear" x1="372.24" y1="93.5751" x2="497.923" y2="74.3929" gradientUnits="userSpaceOnUse">
<stop stop-color="white"/>
<stop offset="1" stop-color="white" stop-opacity="0"/>
</linearGradient>
<linearGradient id="paint2_linear" x1="478.657" y1="67.5328" x2="620.157" y2="66.6798" gradientUnits="userSpaceOnUse">
<stop stop-color="white"/>
<stop offset="1" stop-color="white" stop-opacity="0"/>
</linearGradient>
<linearGradient id="paint3_linear" x1="284.656" y1="129.105" x2="410.084" y2="79.024" gradientUnits="userSpaceOnUse">
<stop stop-color="white"/>
<stop offset="1" stop-color="white" stop-opacity="0"/>
</linearGradient>
<linearGradient id="paint4_linear" x1="204.534" y1="174.09" x2="329.966" y2="116.953" gradientUnits="userSpaceOnUse">
<stop stop-color="white"/>
<stop offset="1" stop-color="white" stop-opacity="0"/>
</linearGradient>
<linearGradient id="paint5_linear" x1="143.58" y1="228.309" x2="264.563" y2="162.272" gradientUnits="userSpaceOnUse">
<stop stop-color="white"/>
<stop offset="1" stop-color="white" stop-opacity="0"/>
</linearGradient>
<linearGradient id="paint6_linear" x1="90.788" y1="285.382" x2="208.756" y2="214.099" gradientUnits="userSpaceOnUse">
<stop stop-color="white"/>
<stop offset="1" stop-color="white" stop-opacity="0"/>
</linearGradient>
<linearGradient id="paint7_linear" x1="40.2138" y1="340.684" x2="158.182" y2="269.402" gradientUnits="userSpaceOnUse">
<stop stop-color="white"/>
<stop offset="1" stop-color="white" stop-opacity="0"/>
</linearGradient>
</defs>
</svg>
